<svg width="864" height="967" viewBox="0 0 864 967" fill="none" xmlns="http://www.w3.org/2000/svg">
<path d="M566.667 608.333C566.667 562.31 529.357 525 483.333 525C437.31 525 400 562.31 400 608.333C400 654.357 437.31 691.667 483.333 691.667M483.333 816.667C368.274 816.667 275 723.393 275 608.333C275 493.274 368.274 400 483.333 400C598.393 400 691.667 493.274 691.667 608.333C691.667 642.851 719.649 670.833 754.167 670.833C788.684 670.833 816.667 642.851 816.667 608.333C816.667 424.238 667.428 275 483.333 275C299.238 275 150 424.238 150 608.333C150 792.428 299.238 941.667 483.333 941.667H566.667M25 608.333C25 719.67 64.6982 821.735 130.712 901.145M838.344 318.42C754.294 215.62 626.477 150 483.333 150C341.518 150 214.746 214.408 130.673 315.568M755.246 92.1179C674.054 49.2619 581.527 25 483.333 25C385.886 25 294.02 48.8945 213.273 91.1442" stroke="#7500CF" stroke-opacity="0.2" stroke-width="50" stroke-linecap="round"/>
</svg>
