<svg width="20" height="23" viewBox="0 0 20 23" fill="none" xmlns="http://www.w3.org/2000/svg">
<path d="M19.1667 3.93188H15V3.08154C15 2.40497 14.7366 1.7561 14.2678 1.27769C13.7989 0.799285 13.163 0.530518 12.5 0.530518H7.5C6.83696 0.530518 6.20107 0.799285 5.73223 1.27769C5.26339 1.7561 5 2.40497 5 3.08154V3.93188H0.833333C0.61232 3.93188 0.400358 4.02147 0.244078 4.18094C0.0877975 4.34041 0 4.55669 0 4.78222C0 5.00774 0.0877975 5.22403 0.244078 5.3835C0.400358 5.54297 0.61232 5.63256 0.833333 5.63256H1.66667V20.9387C1.66667 21.3897 1.84226 21.8223 2.15482 22.1412C2.46738 22.4602 2.89131 22.6394 3.33333 22.6394H16.6667C17.1087 22.6394 17.5326 22.4602 17.8452 22.1412C18.1577 21.8223 18.3333 21.3897 18.3333 20.9387V5.63256H19.1667C19.3877 5.63256 19.5996 5.54297 19.7559 5.3835C19.9122 5.22403 20 5.00774 20 4.78222C20 4.55669 19.9122 4.34041 19.7559 4.18094C19.5996 4.02147 19.3877 3.93188 19.1667 3.93188ZM6.66667 3.08154C6.66667 2.85601 6.75446 2.63973 6.91074 2.48026C7.06702 2.32079 7.27899 2.2312 7.5 2.2312H12.5C12.721 2.2312 12.933 2.32079 13.0893 2.48026C13.2455 2.63973 13.3333 2.85601 13.3333 3.08154V3.93188H6.66667V3.08154ZM16.6667 20.9387H3.33333V5.63256H16.6667V20.9387ZM8.33333 9.88426V16.687C8.33333 16.9125 8.24554 17.1288 8.08926 17.2883C7.93297 17.4477 7.72101 17.5373 7.5 17.5373C7.27899 17.5373 7.06702 17.4477 6.91074 17.2883C6.75446 17.1288 6.66667 16.9125 6.66667 16.687V9.88426C6.66667 9.65873 6.75446 9.44245 6.91074 9.28298C7.06702 9.12351 7.27899 9.03392 7.5 9.03392C7.72101 9.03392 7.93297 9.12351 8.08926 9.28298C8.24554 9.44245 8.33333 9.65873 8.33333 9.88426ZM13.3333 9.88426V16.687C13.3333 16.9125 13.2455 17.1288 13.0893 17.2883C12.933 17.4477 12.721 17.5373 12.5 17.5373C12.279 17.5373 12.067 17.4477 11.9107 17.2883C11.7545 17.1288 11.6667 16.9125 11.6667 16.687V9.88426C11.6667 9.65873 11.7545 9.44245 11.9107 9.28298C12.067 9.12351 12.279 9.03392 12.5 9.03392C12.721 9.03392 12.933 9.12351 13.0893 9.28298C13.2455 9.44245 13.3333 9.65873 13.3333 9.88426Z" fill="#CF007B"/>
</svg>
