<svg width="250" height="250" viewBox="0 0 250 250" fill="none" xmlns="http://www.w3.org/2000/svg">
<path d="M138.977 144.341C138.977 137.312 133.279 131.614 126.25 131.614C119.221 131.614 113.523 137.312 113.523 144.341C113.523 151.37 119.221 157.068 126.25 157.068M126.25 176.159C108.677 176.159 94.4318 161.914 94.4318 144.341C94.4318 126.768 108.677 112.523 126.25 112.523C143.823 112.523 158.068 126.768 158.068 144.341C158.068 149.613 162.342 153.886 167.614 153.886C172.885 153.886 177.159 149.613 177.159 144.341C177.159 116.225 154.366 93.4318 126.25 93.4318C98.1337 93.4318 75.3409 116.225 75.3409 144.341C75.3409 172.457 98.1337 195.25 126.25 195.25H138.977M56.25 144.341C56.25 161.345 62.313 176.933 72.3951 189.061M180.47 100.063C167.633 84.3629 148.112 74.3409 126.25 74.3409C104.591 74.3409 85.2293 84.1778 72.3892 99.6277M167.778 65.5007C155.378 58.9554 141.247 55.25 126.25 55.25C111.367 55.25 97.3366 58.8993 85.0045 65.352" stroke="#7400CF" stroke-width="10" stroke-linecap="round"/>
<path d="M14.32 111.773C14.3775 111.325 14.4594 110.827 14.5659 110.281C14.6779 109.714 14.8031 109.14 14.9415 108.559C15.0798 107.977 15.2227 107.419 15.3702 106.885C15.5029 106.324 15.6288 105.827 15.7479 105.395C16.2757 103.483 16.9941 101.922 17.9033 100.712C18.8125 99.5023 19.8667 98.6092 21.0659 98.0328C22.2651 97.4563 23.587 97.1571 25.0315 97.1352C26.476 97.1133 28.0003 97.3237 29.6044 97.7663C31.0645 98.1692 32.4221 98.743 33.6772 99.4876C34.9324 100.232 35.9652 101.181 36.7757 102.334C37.5861 103.487 38.1144 104.861 38.3603 106.456C38.612 108.031 38.4513 109.856 37.8782 111.933C37.7874 112.262 37.6551 112.702 37.4813 113.251C37.3132 113.78 37.1263 114.337 36.9206 114.922C36.7412 115.492 36.5571 116.039 36.3685 116.563C36.2004 117.092 36.0589 117.484 35.944 117.74L14.32 111.773ZM19.6049 106.095C19.4801 106.547 19.3627 107.013 19.2528 107.491C19.1485 107.949 19.0857 108.297 19.0644 108.535L33.5318 112.527C33.575 112.45 33.6325 112.322 33.7041 112.143C33.7609 111.937 33.8307 111.724 33.9137 111.503C33.9761 111.277 34.046 111.064 34.1233 110.864C34.18 110.658 34.2226 110.504 34.251 110.401C34.5801 109.209 34.6468 108.165 34.4511 107.27C34.2406 106.349 33.8481 105.565 33.2738 104.92C32.7051 104.254 31.9938 103.704 31.14 103.269C30.2657 102.829 29.3452 102.475 28.3787 102.208C27.5355 101.976 26.6697 101.825 25.7811 101.757C24.872 101.683 24.0157 101.779 23.2122 102.044C22.4144 102.289 21.6946 102.732 21.0528 103.374C20.411 104.015 19.9284 104.922 19.6049 106.095Z" fill="black"/>
<path d="M30.3388 84.7167L32.1984 80.9955L46.5107 88.1479L44.6511 91.8691L30.3388 84.7167ZM26.0309 83.2436C25.4775 82.967 25.1101 82.533 24.9287 81.9415C24.7378 81.3214 24.8235 80.6488 25.1859 79.9236C25.5483 79.1985 26.0395 78.7166 26.6596 78.4779C27.2701 78.2107 27.8521 78.2153 28.4055 78.4919C28.9589 78.7684 29.312 79.2311 29.4648 79.8798C29.608 80.4999 29.4985 81.1725 29.1361 81.8977C28.7737 82.6229 28.3063 83.1048 27.7339 83.3434C27.152 83.5534 26.5843 83.5201 26.0309 83.2436Z" fill="black"/>
<path d="M58.211 70.5263C60.0713 71.9214 61.0591 73.4488 61.1745 75.1085C61.3068 76.781 60.6947 78.5219 59.338 80.331C58.4165 81.5599 57.6016 82.4687 56.8933 83.0576C56.1979 83.6293 55.6219 84.024 55.1654 84.2417L53.0469 81.573C53.4948 81.2956 53.9876 80.9585 54.5252 80.5617C55.0756 80.1478 55.6387 79.5568 56.2147 78.7888C57.085 77.6282 57.4177 76.6511 57.2129 75.8575C57.0379 75.0597 56.4981 74.3216 55.5936 73.6432L54.7743 73.0289L54.6975 73.1313C55.0517 74.3302 54.6593 75.6892 53.5202 77.2082C52.2787 78.8637 50.8387 79.7171 49.2003 79.7684C47.5747 79.8027 45.6696 79.0007 43.485 77.3624C41.198 75.6473 39.8752 73.8021 39.5166 71.8266C39.1581 69.8512 39.7596 67.8224 41.3211 65.7401C42.1402 64.6478 42.9465 63.7326 43.7401 62.9944C44.5464 62.2391 45.2568 61.6652 45.8712 61.2726L58.211 70.5263ZM51.5296 74.3155C52.016 73.6669 52.2421 73.0632 52.2079 72.5042C52.1865 71.9282 51.9561 71.3288 51.5166 70.7059L45.7563 66.3863C45.1377 66.749 44.534 67.3229 43.9452 68.108C43.3053 68.9613 43.1304 69.8702 43.4206 70.8344C43.6937 71.7858 44.53 72.7863 45.9296 73.8358C47.1755 74.7702 48.2763 75.2757 49.2321 75.3524C50.1878 75.4292 50.9536 75.0835 51.5296 74.3155Z" fill="black"/>
<path d="M54.9186 50.8505L57.9699 48.0229L68.8451 59.7587L65.7938 62.5863L54.9186 50.8505ZM51.4058 47.9543C50.9853 47.5005 50.7943 46.9649 50.8329 46.3474C50.8727 45.6998 51.1899 45.1005 51.7845 44.5495C52.3791 43.9985 53.0086 43.7205 53.673 43.7156C54.3385 43.6805 54.8816 43.8899 55.3021 44.3437C55.7226 44.7975 55.8901 45.3549 55.8045 46.0158C55.7202 46.6466 55.3807 47.2375 54.786 47.7886C54.1914 48.3396 53.5842 48.6259 52.9645 48.6476C52.3459 48.6392 51.8263 48.4081 51.4058 47.9543Z" fill="black"/>
<path d="M64.3938 42.5484L66.2096 41.2921L64.4981 38.8184L67.2454 35.4779L69.6306 38.9252L72.8411 36.7039L74.8438 39.5986L71.6333 41.8199L75.1291 46.8725C75.7603 47.7847 76.3032 48.3819 76.7578 48.664C77.2178 48.9165 77.7022 48.8667 78.2109 48.5147C78.5618 48.2719 78.8358 48.0305 79.0328 47.7904C79.2474 47.5382 79.4641 47.2326 79.6828 46.8738L82.1087 49.0866C81.7928 49.6424 81.3737 50.2177 80.8514 50.8126C80.3291 51.4074 79.7434 51.9294 79.0942 52.3785C77.8837 53.216 76.7766 53.5281 75.7728 53.3146C74.7745 53.0714 73.7837 52.2393 72.8005 50.8183L68.2123 44.1868L66.3966 45.4431L64.3938 42.5484Z" fill="black"/>
<path d="M82.2385 32.1571C82.8673 31.4641 83.6769 30.7855 84.6673 30.1211C85.6491 29.4371 86.7267 28.8394 87.9001 28.328C88.9171 27.8847 89.8232 27.6411 90.6184 27.597C91.4052 27.5333 92.0922 27.6411 92.6794 27.9204C93.2861 28.1912 93.8041 28.6054 94.2333 29.163C94.6821 29.7121 95.0769 30.3778 95.4179 31.1601C95.793 32.0205 96.143 32.9036 96.4679 33.8092C96.7843 34.6952 97.1159 35.563 97.4629 36.4124C97.8294 37.2534 98.2168 38.0619 98.6249 38.8382C99.0246 39.5949 99.4952 40.2741 100.037 40.8758L96.9272 42.2311L95.429 40.4756L95.2823 40.5395C95.1554 41.3162 94.838 42.0829 94.33 42.8396C93.8331 43.5682 93.037 44.1711 91.9419 44.6485C91.2574 44.9468 90.5988 45.1175 89.9659 45.1607C89.3246 45.1842 88.7274 45.0954 88.1743 44.8943C87.6127 44.6737 87.1135 44.356 86.6768 43.9413C86.2315 43.5071 85.8682 42.9673 85.5869 42.3219C85.1948 41.4223 85.0622 40.5841 85.1891 39.8074C85.327 39.0026 85.6865 38.2525 86.2677 37.557C86.8599 36.8334 87.6445 36.1773 88.6213 35.5886C89.6091 34.9719 90.7612 34.4115 92.0775 33.9076C91.737 32.7528 91.3179 32.0046 90.8199 31.6631C90.3135 31.3021 89.5518 31.3432 88.5349 31.7864C87.7722 32.1189 86.9947 32.5509 86.2024 33.0824C85.4297 33.6054 84.8249 34.1133 84.3881 34.6062L82.2385 32.1571ZM91.8351 40.9599C92.5978 40.6274 93.1316 40.197 93.4365 39.6685C93.7329 39.1204 93.9034 38.6039 93.948 38.119L93.1169 36.2123C92.4851 36.4178 91.8942 36.6638 91.3441 36.9501C90.8135 37.2279 90.363 37.529 89.9924 37.8534C89.6218 38.1778 89.3649 38.5226 89.2214 38.8876C89.078 39.2527 89.0915 39.6307 89.262 40.0219C89.5007 40.5695 89.8447 40.9315 90.294 41.108C90.7543 41.2565 91.268 41.2071 91.8351 40.9599Z" fill="black"/>
<path d="M112.922 31.537C113.096 32.263 113.316 32.7695 113.583 33.0566C113.849 33.3436 114.19 33.4373 114.605 33.3376C114.854 33.2778 115.087 33.1998 115.305 33.1035C115.544 33.0022 115.823 32.8366 116.14 32.6067L117.339 35.6757C117.047 35.9214 116.578 36.2094 115.934 36.5398C115.289 36.8702 114.604 37.1226 113.878 37.2971C112.695 37.5811 111.728 37.5282 110.976 37.1384C110.219 36.7279 109.689 35.8899 109.385 34.6246L104.9 15.9558L108.945 14.984L112.922 31.537Z" fill="black"/>
<path d="M130.922 225.808L138.552 222.411L143.004 231.347C142.519 232.38 141.777 233.305 140.779 234.123C139.801 234.932 138.757 235.583 137.646 236.078C136.34 236.659 135.022 237.001 133.692 237.103C132.381 237.197 131.107 237.006 129.87 236.53C128.624 236.035 127.438 235.233 126.314 234.124C125.19 233.014 124.176 231.553 123.273 229.738C122.331 227.848 121.805 226.123 121.694 224.562C121.593 222.974 121.787 221.57 122.274 220.349C122.772 219.101 123.495 218.044 124.445 217.178C125.385 216.293 126.44 215.59 127.609 215.07C128.778 214.549 129.844 214.179 130.807 213.961C131.789 213.734 132.591 213.598 133.212 213.555L134.035 217.213C133.452 217.239 132.835 217.339 132.183 217.512C131.522 217.667 130.724 217.952 129.788 218.369C128.95 218.742 128.242 219.209 127.664 219.769C127.086 220.33 126.677 221.014 126.436 221.821C126.205 222.6 126.162 223.494 126.308 224.503C126.472 225.503 126.869 226.633 127.497 227.893C128.096 229.096 128.751 230.076 129.461 230.833C130.162 231.571 130.899 232.118 131.671 232.473C132.434 232.81 133.204 232.969 133.98 232.95C134.776 232.923 135.544 232.744 136.285 232.414C136.792 232.189 137.26 231.91 137.69 231.579C138.111 231.228 138.425 230.855 138.633 230.459L136.749 226.678L132.107 228.185L130.922 225.808Z" fill="black"/>
<path d="M165.199 217.65C164.983 218.429 164.53 219.282 163.841 220.212C163.156 221.111 162.308 221.918 161.296 222.63C159.186 224.117 157.195 224.607 155.323 224.1C153.439 223.575 151.71 222.263 150.137 220.163C148.449 217.909 147.732 215.832 147.986 213.931C148.241 212.03 149.362 210.379 151.351 208.978C152.013 208.511 152.723 208.142 153.478 207.87C154.234 207.599 155.003 207.487 155.785 207.536C156.568 207.585 157.357 207.837 158.152 208.295C158.947 208.752 159.716 209.475 160.458 210.466C160.726 210.824 160.988 211.227 161.242 211.673C161.514 212.108 161.773 212.578 162.018 213.083L154.171 218.612C155.029 219.651 155.915 220.266 156.83 220.456C157.763 220.633 158.804 220.317 159.955 219.506C160.67 219.002 161.23 218.451 161.635 217.853C162.044 217.226 162.314 216.696 162.444 216.266L165.199 217.65ZM153.293 211.679C152.404 212.305 151.939 213.037 151.9 213.873C151.865 214.68 152.13 215.55 152.695 216.482L157.561 213.054C156.94 212.083 156.261 211.479 155.524 211.242C154.804 210.992 154.061 211.138 153.293 211.679Z" fill="black"/>
<path d="M172.83 196.433C172.188 196.725 171.675 197.056 171.291 197.426C170.753 197.943 170.442 198.524 170.359 199.166C170.275 199.779 170.39 200.365 170.703 200.922L177.982 208.261L174.984 211.145L163.717 199.785L166.046 197.544L167.879 198.711L167.971 198.622C167.676 197.81 167.602 197.038 167.747 196.306C167.893 195.575 168.265 194.92 168.865 194.343C169.264 193.959 169.8 193.606 170.473 193.284L172.83 196.433Z" fill="black"/>
<path d="M193.918 187.69C193.937 188.509 193.754 189.47 193.37 190.572C192.981 191.644 192.412 192.672 191.662 193.655C190.096 195.708 188.358 196.756 186.446 196.8C184.517 196.832 182.509 196.052 180.423 194.46C178.184 192.753 176.912 190.937 176.608 189.015C176.303 187.092 176.888 185.164 178.363 183.231C178.855 182.586 179.418 182.023 180.054 181.542C180.689 181.061 181.383 180.731 182.136 180.554C182.888 180.376 183.705 180.396 184.586 180.612C185.468 180.828 186.4 181.312 187.384 182.062C187.741 182.334 188.103 182.65 188.471 183.012C188.852 183.356 189.231 183.739 189.607 184.16L183.785 191.793C184.893 192.557 185.905 192.901 186.823 192.823C187.754 192.728 188.647 192.121 189.501 191.001C190.031 190.306 190.402 189.609 190.612 188.911C190.819 188.183 190.921 187.591 190.921 187.134L193.918 187.69ZM180.971 185.3C180.311 186.165 180.082 187.01 180.284 187.835C180.483 188.63 180.982 189.4 181.783 190.145L185.392 185.412C184.528 184.646 183.714 184.253 182.951 184.234C182.2 184.198 181.54 184.553 180.971 185.3Z" fill="black"/>
<path d="M205.955 170.018L197.937 165.74C196.789 165.127 195.873 164.856 195.191 164.927C194.517 164.979 193.977 165.404 193.569 166.202C193.21 166.904 193.111 167.613 193.273 168.328C193.425 169.014 193.749 169.622 194.245 170.152L203.392 175.033L201.499 178.737L187.383 171.205L188.883 168.27L190.964 168.837L191.023 168.723C190.644 167.965 190.413 167.104 190.33 166.141C190.247 165.179 190.497 164.127 191.08 162.987C191.439 162.285 191.853 161.708 192.323 161.258C192.793 160.807 193.341 160.507 193.968 160.358C194.595 160.209 195.334 160.241 196.184 160.453C197.015 160.654 197.976 161.046 199.068 161.629L207.848 166.314L205.955 170.018Z" fill="black"/>
<path d="M214.43 145.384C214.686 146.148 214.79 147.007 214.743 147.96C214.722 148.9 214.57 149.828 214.288 150.746C213.912 151.969 213.401 152.944 212.754 153.668C212.114 154.373 211.37 154.872 210.521 155.166C209.652 155.454 208.686 155.55 207.622 155.455C206.564 155.339 205.44 155.077 204.25 154.667C201.688 153.786 199.9 152.529 198.885 150.895C197.85 149.254 197.674 147.322 198.357 145.099C198.702 143.978 199.068 143.112 199.457 142.501C199.851 141.87 200.275 141.328 200.726 140.874L203.642 142.926C203.276 143.318 202.961 143.728 202.696 144.156C202.437 144.563 202.216 145.062 202.035 145.653C201.696 146.755 201.803 147.716 202.353 148.536C202.884 149.35 203.936 150.027 205.51 150.568C206.155 150.79 206.772 150.924 207.361 150.968C207.949 151.013 208.489 150.962 208.981 150.815C209.472 150.668 209.907 150.412 210.287 150.047C210.653 149.654 210.93 149.152 211.118 148.54C211.325 147.867 211.42 147.268 211.403 146.744C211.365 146.212 211.282 145.721 211.152 145.271L214.43 145.384Z" fill="black"/>
<path d="M212.291 126.723L214.824 126.584L214.849 126.394L212.412 125.544L203.901 121.581L204.455 117.329L218.041 124.65C219.166 125.259 220.186 125.839 221.103 126.389C222.044 126.922 222.843 127.474 223.499 128.044C224.156 128.614 224.637 129.207 224.944 129.823C225.274 130.422 225.391 131.092 225.295 131.832C225.152 132.932 224.859 133.779 224.417 134.372L221.238 133.034C221.405 132.739 221.51 132.433 221.551 132.116C221.614 131.629 221.465 131.127 221.102 130.609C220.764 130.073 220.074 129.595 219.032 129.174L202.411 133.036L203.055 128.086L212.291 126.723Z" fill="black"/>
</svg>
