<svg width="97" height="108" viewBox="0 0 97 108" fill="none" xmlns="http://www.w3.org/2000/svg">
<path d="M63.0909 67.6364C63.0909 62.6156 59.0208 58.5455 54 58.5455C48.9792 58.5455 44.9091 62.6156 44.9091 67.6364C44.9091 72.6571 48.9792 76.7273 54 76.7273M54 90.3636C41.4481 90.3636 31.2727 80.1883 31.2727 67.6364C31.2727 55.0844 41.4481 44.9091 54 44.9091C66.5519 44.9091 76.7273 55.0844 76.7273 67.6364C76.7273 71.4019 79.7799 74.4545 83.5455 74.4545C87.311 74.4545 90.3636 71.4019 90.3636 67.6364C90.3636 47.5533 74.0831 31.2727 54 31.2727C33.9169 31.2727 17.6364 47.5533 17.6364 67.6364C17.6364 87.7194 33.9169 104 54 104H63.0909M4 67.6364C4 79.7822 8.33071 90.9165 15.5322 99.5794M92.7284 36.0094C83.5593 24.7949 69.6157 17.6364 54 17.6364C38.5292 17.6364 24.6995 24.6627 15.528 35.6984M83.6632 11.322C74.8058 6.64675 64.712 4 54 4C43.3694 4 33.3476 6.60668 24.5389 11.2157" stroke="#B900CF" stroke-width="8" stroke-linecap="round"/>
</svg>
