<svg width="50" height="50" viewBox="0 0 50 50" fill="none" xmlns="http://www.w3.org/2000/svg">
<path d="M29.1668 31.25C29.1668 28.9489 27.3013 27.0834 25.0002 27.0834C22.699 27.0834 20.8335 28.9489 20.8335 31.25C20.8335 33.5512 22.699 35.4167 25.0002 35.4167M25.0002 41.6667C19.2472 41.6667 14.5835 37.003 14.5835 31.25C14.5835 25.4971 19.2472 20.8334 25.0002 20.8334C30.7531 20.8334 35.4168 25.4971 35.4168 31.25C35.4168 32.9759 36.8159 34.375 38.5418 34.375C40.2677 34.375 41.6668 32.9759 41.6668 31.25C41.6668 22.0453 34.2049 14.5834 25.0002 14.5834C15.7954 14.5834 8.3335 22.0453 8.3335 31.25C8.3335 40.4548 15.7954 47.9167 25.0002 47.9167H29.1668M2.0835 31.25C2.0835 36.8169 4.06841 41.9201 7.36909 45.8906M42.7507 16.7544C38.5482 11.6144 32.1573 8.33337 25.0002 8.33337C17.9094 8.33337 11.5708 11.5538 7.36716 16.6118M38.5958 5.43927C34.5362 3.29647 29.9098 2.08337 25.0002 2.08337C20.1278 2.08337 15.5345 3.2781 11.4972 5.39058" stroke="#F8F8F8" stroke-width="3" stroke-linecap="round"/>
</svg>
