<svg width="20" height="21" viewBox="0 0 20 21" fill="none" xmlns="http://www.w3.org/2000/svg">
<path d="M19.5313 5.58834L15.0624 1.02933C14.9139 0.877692 14.7375 0.757403 14.5433 0.675335C14.3492 0.593266 14.1411 0.551025 13.931 0.551025C13.7208 0.551025 13.5128 0.593266 13.3186 0.675335C13.1245 0.757403 12.9481 0.877692 12.7995 1.02933L0.46899 13.6115C0.319775 13.7626 0.201474 13.9424 0.120963 14.1405C0.0404513 14.3386 -0.000663414 14.5511 8.09464e-06 14.7655V19.3256C8.09464e-06 19.7586 0.168573 20.1738 0.468619 20.48C0.768666 20.7862 1.17562 20.9582 1.59995 20.9582H18.3993C18.6115 20.9582 18.8149 20.8722 18.965 20.7191C19.115 20.566 19.1993 20.3584 19.1993 20.1419C19.1993 19.9254 19.115 19.7177 18.965 19.5647C18.8149 19.4116 18.6115 19.3256 18.3993 19.3256H8.33169L19.5313 7.89744C19.6799 7.74583 19.7978 7.56584 19.8782 7.36774C19.9586 7.16964 20 6.95731 20 6.74289C20 6.52846 19.9586 6.31614 19.8782 6.11804C19.7978 5.91994 19.6799 5.73995 19.5313 5.58834ZM10.3996 5.78629L12.0685 7.48929L3.59987 16.1308L1.93093 14.4278L10.3996 5.78629ZM1.59995 19.3256V16.3981L4.46884 19.3256H1.59995ZM6.39976 18.9878L4.73183 17.2848L13.1995 8.64333L14.8684 10.3463L6.39976 18.9878ZM15.9994 9.19228L11.5316 4.63226L13.9315 2.18337L18.3993 6.7434L15.9994 9.19228Z" fill="#3100CF"/>
</svg>
