<svg width="110" height="110" viewBox="0 0 110 110" fill="none" xmlns="http://www.w3.org/2000/svg">
<circle cx="55" cy="55" r="52.5" fill="#D9D9D9" stroke="#7500CF" stroke-width="5"/>
<path d="M61.3636 64.5455C61.3636 61.0309 58.5145 58.1818 55 58.1818C51.4855 58.1818 48.6364 61.0309 48.6364 64.5455C48.6364 68.06 51.4855 70.9091 55 70.9091M55 80.4545C46.2137 80.4545 39.0909 73.3318 39.0909 64.5455C39.0909 55.7591 46.2137 48.6364 55 48.6364C63.7863 48.6364 70.9091 55.7591 70.9091 64.5455C70.9091 67.1814 73.0459 69.3182 75.6818 69.3182C78.3177 69.3182 80.4545 67.1814 80.4545 64.5455C80.4545 50.4873 69.0582 39.0909 55 39.0909C40.9418 39.0909 29.5455 50.4873 29.5455 64.5455C29.5455 78.6036 40.9418 90 55 90H61.3636M20 64.5455C20 73.0475 23.0315 80.8416 28.0725 86.9056M82.1099 42.4066C75.6915 34.5565 65.931 29.5455 55 29.5455C44.1704 29.5455 34.4897 34.4639 28.0696 42.1889M75.7642 25.1254C69.5641 21.8527 62.4984 20 55 20C47.5586 20 40.5433 21.8247 34.3772 25.051" stroke="#7500CF" stroke-width="6" stroke-linecap="round"/>
</svg>
